<svg width="21" height="20" viewBox="0 0 21 20" fill="none" xmlns="http://www.w3.org/2000/svg">
<path d="M12.5006 12.7274C13.5989 12.7274 14.4949 13.5934 14.543 14.6798L14.5423 14.773H7.26953L7.26916 14.0902L2.04445 14.0911C1.66845 14.0911 1.36364 14.3959 1.36364 14.7719V15.2971C1.36364 15.784 1.53738 16.255 1.85362 16.6253C2.993 17.9596 4.78017 18.6376 7.26953 18.6376V17.9548L13.3078 17.9557C11.8888 19.3247 9.86263 20.0013 7.26953 20.0013C4.40966 20.0013 2.24055 19.1784 0.816622 17.5109C0.289565 16.8936 0 16.1087 0 15.2971V14.7719C0 13.6428 0.915332 12.7274 2.04445 12.7274H12.5006ZM14.0606 17.0468L7.26953 17.0457V15.6821L14.523 15.6822C14.4677 16.1655 14.3097 16.6307 14.0606 17.0468ZM7.26953 1.81836C8.75663 1.81836 10.0768 2.53243 10.9061 3.63638L7.26953 3.63655V3.182C5.51225 3.182 4.08771 4.60655 4.08771 6.36384C4.08771 8.12112 5.51225 9.54567 7.26953 9.54567V9.09112L10.9055 9.09221C10.0761 10.1957 8.75617 10.9093 7.26953 10.9093C4.75915 10.9093 2.72407 8.87423 2.72407 6.36384C2.72407 3.85344 4.75915 1.81836 7.26953 1.81836ZM11.7926 6.81902C11.7447 7.29947 11.6222 7.75791 11.4365 8.18251L7.26953 8.18203V6.81838L11.7926 6.81902ZM11.437 4.54606C11.6225 4.97068 11.7449 5.42912 11.7926 5.90956L7.26953 5.90929V4.54565L11.437 4.54606Z" fill="url(#paint0_linear_35_13825)"/>
<path d="M15.4546 0C18.467 0 20.9091 2.44209 20.9091 5.45457C20.9091 8.46702 18.467 10.9091 15.4546 10.9091C12.4421 10.9091 10 8.46702 10 5.45457C10 2.44209 12.4421 0 15.4546 0ZM15.4546 0.818186C12.894 0.818186 10.8182 2.89397 10.8182 5.45457C10.8182 8.01517 12.894 10.091 15.4546 10.091C18.0152 10.091 20.091 8.01517 20.091 5.45457C20.091 2.89397 18.0152 0.818186 15.4546 0.818186ZM15.4546 2.72729C15.6805 2.72729 15.8637 2.91045 15.8637 3.13638V5.04548H17.7728C17.9987 5.04548 18.1819 5.22864 18.1819 5.45457C18.1819 5.6805 17.9987 5.86367 17.7728 5.86367H15.8637V7.77277C15.8637 7.99869 15.6805 8.18186 15.4546 8.18186C15.2286 8.18186 15.0455 7.99869 15.0455 7.77277V5.86367H13.1364C12.9104 5.86367 12.7273 5.6805 12.7273 5.45457C12.7273 5.22864 12.9104 5.04548 13.1364 5.04548H15.0455V3.13638C15.0455 2.91045 15.2286 2.72729 15.4546 2.72729Z" fill="url(#paint1_linear_35_13825)"/>
<defs>
<linearGradient id="paint0_linear_35_13825" x1="1.36364" y1="3.182" x2="11.3637" y2="21.8185" gradientUnits="userSpaceOnUse">
<stop stop-color="#56BCFB"/>
<stop offset="1" stop-color="#DE87FF"/>
</linearGradient>
<linearGradient id="paint1_linear_35_13825" x1="11.3636" y1="0.909095" x2="18.6364" y2="10.4546" gradientUnits="userSpaceOnUse">
<stop stop-color="#DE87FF"/>
<stop offset="0.958333" stop-color="#56BCFB"/>
</linearGradient>
</defs>
</svg>
