<svg width="42" height="42" viewBox="0 0 42 42" fill="none" xmlns="http://www.w3.org/2000/svg">
<path id="Vector" d="M30.45 18.9C36.829 18.9 42 24.071 42 30.45C42 36.829 36.829 42 30.45 42C24.071 42 18.9 36.829 18.9 30.45C18.9 24.071 24.071 18.9 30.45 18.9ZM25.25 25.2506C24.8398 25.6607 24.8398 26.3256 25.25 26.7355L28.9653 30.4521L25.2554 34.1617C24.8453 34.5719 24.8453 35.2365 25.2554 35.6467C25.6656 36.0568 26.3302 36.0568 26.7403 35.6467L30.45 31.9368L34.1657 35.6513C34.5759 36.0614 35.2405 36.0614 35.6506 35.6513C36.0608 35.2414 36.0608 34.5765 35.6506 34.1664L31.9368 30.4521L35.6565 26.7357C36.0664 26.3256 36.0664 25.6607 35.6565 25.2508C35.2464 24.8407 34.5815 24.8407 34.1716 25.2508L30.4521 28.9674L26.7349 25.2506C26.3248 24.8407 25.6601 24.8407 25.25 25.2506ZM30.975 0C34.7443 0 37.8 3.05565 37.8 6.825L37.8025 18.9475C36.8294 18.3242 35.7718 17.8208 34.6508 17.4586L34.65 11.55H3.15V30.975C3.15 33.0047 4.79535 34.65 6.825 34.65L17.4586 34.6508C17.8208 35.7718 18.3242 36.8294 18.9475 37.8025L6.825 37.8C3.05565 37.8 0 34.7443 0 30.975V6.825C0 3.05565 3.05565 0 6.825 0H30.975ZM30.975 3.15H6.825C4.79535 3.15 3.15 4.79535 3.15 6.825V8.4H34.65V6.825C34.65 4.79535 33.0047 3.15 30.975 3.15Z" fill="white"/>
</svg>
