<svg width="32" height="32" viewBox="0 0 32 32" fill="none" xmlns="http://www.w3.org/2000/svg">
<g id="icon-history">
<path id="Shape" fill-rule="evenodd" clip-rule="evenodd" d="M4.68734 4.68734C7.68743 1.68594 11.7566 0 16 0C20.2434 0 24.3128 1.68594 27.3127 4.68734C30.3141 7.68744 32 11.7566 32 16C32 20.2435 30.3141 24.3128 27.3127 27.3127C24.3126 30.3141 20.2434 32 16 32C11.7566 32 7.68724 30.3141 4.68734 27.3127C1.68594 24.3126 0 20.2435 0 16C0 11.7566 1.68594 7.68724 4.68734 4.68734ZM20.8003 19.1994C21.5173 19.2369 22.1712 18.7929 22.4007 18.1119L22.4008 18.1119C22.5343 17.6979 22.4938 17.2479 22.2883 16.864C22.0828 16.4815 21.7303 16.198 21.3118 16.0795H21.3133L17.6009 14.848V8.00076C17.6009 7.11728 16.8839 6.40029 16.0005 6.40029C15.117 6.40029 14.4 7.11728 14.4 8.00076V16C14.3985 16.6884 14.8365 17.3004 15.489 17.5194L20.2888 19.1199C20.4553 19.1694 20.6263 19.1949 20.8003 19.1994Z" fill="white"/>
</g>
</svg>
