<svg width="100" height="100" viewBox="0 0 100 100" fill="none" xmlns="http://www.w3.org/2000/svg">
<g id="Folder / undefined / Glyph: undefined">
<path id="Vector" d="M8.33325 33.3333V26.0417C8.33325 18.5628 14.396 12.5 21.8749 12.5H33.8694C36.3558 12.5 38.7404 13.4877 40.4985 15.2459L46.8749 21.6223L36.0791 32.418C35.4931 33.0041 34.6982 33.3333 33.8694 33.3333H8.33325ZM8.33325 39.5833V73.9583C8.33325 81.4371 14.396 87.5 21.8749 87.5H78.1249C85.6037 87.5 91.6666 81.4371 91.6666 73.9583V36.4583C91.6666 28.9795 85.6037 22.9167 78.1249 22.9167H54.4195L40.4985 36.8375C38.7404 38.5956 36.3558 39.5833 33.8694 39.5833H8.33325Z" fill="url(#paint0_linear_35_25193)"/>
</g>
<defs>
<linearGradient id="paint0_linear_35_25193" x1="4.33782" y1="6.81819" x2="98.653" y2="29.0139" gradientUnits="userSpaceOnUse">
<stop stop-color="#1F56E2"/>
<stop offset="1" stop-color="#B900FF"/>
</linearGradient>
</defs>
</svg>
