<svg width="50" height="50" viewBox="0 0 50 50" fill="none" xmlns="http://www.w3.org/2000/svg">
<g id="Group">
<path id="Vector" d="M50 25C50 11.1926 38.8074 0 25 0C11.1926 0 0 11.1926 0 25C0 37.4778 9.14074 47.8222 21.0926 49.6963V32.2259H14.7444V25H21.0926V19.4926C21.0926 13.2259 24.8259 9.76667 30.537 9.76667C33.2741 9.76667 36.1333 10.2556 36.1333 10.2556V16.4074H32.9815C29.8778 16.4074 28.9074 18.3333 28.9074 20.3111V25H35.8407L34.7333 32.2259H28.9074V49.6963C40.8593 47.8222 50 37.4778 50 25Z" fill="#4676ED"/>
<path id="Vector_2" d="M34.7296 32.2261L35.837 25.0002H28.9037V20.3113C28.9037 18.3335 29.8704 16.4076 32.9778 16.4076H36.1296V10.2557C36.1296 10.2557 33.2704 9.76685 30.5333 9.76685C24.8222 9.76685 21.0889 13.2261 21.0889 19.4928V25.0002H14.7407V32.2261H21.0889V49.6965C22.3629 49.8965 23.6666 50.0002 24.9963 50.0002C26.3259 50.0002 27.6296 49.8965 28.9037 49.6965V32.2261H34.7296Z" fill="white"/>
</g>
</svg>
