<svg width="42" height="47" viewBox="0 0 42 47" fill="none" xmlns="http://www.w3.org/2000/svg">
<path id="Vector" d="M5.25001 3.50001C4.28352 3.50001 3.50001 4.28352 3.50001 5.25001V41.4168C3.50001 42.3833 4.28352 43.1668 5.25001 43.1668H14.0684C13.8184 44.4462 14.0875 45.6709 14.7017 46.6668H5.25001C2.35051 46.6668 0 44.3162 0 41.4168V5.25001C0 2.35051 2.35051 0 5.25001 0H19.4503C20.5332 0 21.5717 0.430198 22.3375 1.19598L36.1374 14.9959C36.9032 15.7616 37.3334 16.8003 37.3334 17.8832V18.6667H37.0296C36.7716 18.6538 36.513 18.6538 36.255 18.6667H23.3334C20.756 18.6667 18.6667 16.5774 18.6667 14V3.50001H5.25001ZM22.1667 5.97489V14C22.1667 14.6444 22.6892 15.1667 23.3334 15.1667H31.3585L22.1667 5.97489ZM36.6645 21.0001H36.6694C38.0334 21.0008 39.3973 21.5213 40.4379 22.5622C42.5207 24.645 42.5207 28.0218 40.4379 30.1045L26.6656 43.8768C25.8627 44.68 24.8566 45.2495 23.7548 45.5249L19.4832 46.5928C17.6256 47.0574 15.9428 45.3746 16.4073 43.517L17.4753 39.2454C17.7506 38.1436 18.3202 37.1374 19.1234 36.3345L32.8957 22.5622C33.9363 21.5213 35.3004 21.0008 36.6645 21.0001Z" fill="white"/>
</svg>
