<svg width="32" height="32" viewBox="0 0 32 32" fill="none" xmlns="http://www.w3.org/2000/svg">
<path d="M18.2542 0.568955C16.8085 -0.0171255 15.1915 -0.0171255 13.7458 0.568955L10.2409 1.98983L25.5885 7.95831L30.9874 5.87235C30.7699 5.69198 30.523 5.54278 30.252 5.43291L18.2542 0.568955ZM32 8.05403L17.1997 13.7723V31.2494C17.5578 31.1763 17.9109 31.0701 18.2542 30.9309L30.252 26.067C31.3086 25.6385 32 24.6123 32 23.4721V8.05403ZM14.7997 31.2493V13.7723L0 8.05428V23.4721C0 24.6123 0.691376 25.6385 1.74803 26.067L13.7458 30.9309C14.089 31.0701 14.4418 31.1761 14.7997 31.2493ZM1.01237 5.87252L15.9997 11.6631L22.2669 9.24168L6.99894 3.30415L1.74803 5.43291C1.47693 5.54281 1.22987 5.69207 1.01237 5.87252Z" fill="#979797"/>
</svg>
