<svg width="50" height="50" viewBox="0 0 50 50" fill="none" xmlns="http://www.w3.org/2000/svg">
<g id="Group">
<path id="Vector" d="M25 50C38.8071 50 50 38.8071 50 25C50 11.1929 38.8071 0 25 0C11.1929 0 0 11.1929 0 25C0 38.8071 11.1929 50 25 50Z" fill="url(#paint0_linear_35_13262)"/>
<path id="Vector_2" d="M16.9222 26.826L19.8888 35.0371C19.8888 35.0371 20.2592 35.8037 20.6555 35.8037C21.0518 35.8037 26.9592 29.6593 26.9592 29.6593L33.5259 16.9741L17.0259 24.7075L16.9185 26.826H16.9222Z" fill="#C8DAEA"/>
<path id="Vector_3" d="M20.8519 28.9297L20.2816 34.9815C20.2816 34.9815 20.0445 36.8371 21.8964 34.9815C23.7519 33.126 25.526 31.6963 25.526 31.6963L20.8519 28.9297Z" fill="#A9C6D8"/>
<path id="Vector_4" d="M16.9742 27.1185L10.8742 25.1296C10.8742 25.1296 10.1446 24.8333 10.3816 24.1629C10.4297 24.0259 10.526 23.9074 10.8186 23.7037C12.1705 22.7629 35.8409 14.2518 35.8409 14.2518C35.8409 14.2518 36.5075 14.0259 36.9038 14.1777C37.0853 14.2444 37.2001 14.3222 37.2964 14.6074C37.3335 14.7111 37.352 14.9296 37.3483 15.1444C37.3483 15.3 37.326 15.4481 37.3112 15.674C37.1668 18 32.852 35.3592 32.852 35.3592C32.852 35.3592 32.5927 36.374 31.6705 36.4111C31.3335 36.4222 30.9223 36.3556 30.4335 35.9333C28.6186 34.3704 22.3446 30.1555 20.9594 29.2296C20.8816 29.1777 20.8594 29.1111 20.8446 29.0444C20.826 28.9481 20.9298 28.8259 20.9298 28.8259C20.9298 28.8259 31.852 19.1185 32.1409 18.1C32.1631 18.0222 32.0779 17.9815 31.9631 18.0148C31.2372 18.2815 18.6631 26.2222 17.2742 27.1C17.1927 27.1518 16.9668 27.1185 16.9668 27.1185H16.9742Z" fill="white"/>
</g>
<defs>
<linearGradient id="paint0_linear_35_13262" x1="25" y1="50" x2="25" y2="0" gradientUnits="userSpaceOnUse">
<stop stop-color="#1D93D2"/>
<stop offset="1" stop-color="#38B0E3"/>
</linearGradient>
</defs>
</svg>
