<svg width="32" height="30" viewBox="0 0 32 30" fill="none" xmlns="http://www.w3.org/2000/svg">
<path id="Vector" d="M4.57143 3.67808C4.57143 1.78454 6.10645 0.249512 8 0.249512H22.4762C24.3697 0.249512 25.9048 1.78454 25.9048 3.67808V17.0114H32V22.7257C32 25.4608 29.7827 27.6781 27.0476 27.6781H18.2095C18.2595 27.4318 18.2857 27.1771 18.2857 26.9162V20.8209C18.2857 18.717 16.5801 17.0114 14.4762 17.0114H4.57143V3.67808ZM25.9048 25.3924H27.0476C28.5204 25.3924 29.7143 24.1985 29.7143 22.7257V19.2971H25.9048V25.3924ZM9.90476 7.48761C9.90476 8.11878 10.4164 8.63046 11.0476 8.63046H19.4286C20.0597 8.63046 20.5714 8.11878 20.5714 7.48761C20.5714 6.85643 20.0597 6.34475 19.4286 6.34475H11.0476C10.4164 6.34475 9.90476 6.85643 9.90476 7.48761ZM11.0476 12.44C10.4164 12.44 9.90476 12.9517 9.90476 13.5828C9.90476 14.214 10.4164 14.7257 11.0476 14.7257H19.4286C20.0597 14.7257 20.5714 14.214 20.5714 13.5828C20.5714 12.9517 20.0597 12.44 19.4286 12.44H11.0476ZM2.28571 18.5352C1.02334 18.5352 0 19.5586 0 20.8209V26.9162C0 28.1785 1.02334 29.2019 2.28571 29.2019H14.4762C15.7385 29.2019 16.7619 28.1785 16.7619 26.9162V20.8209C16.7619 19.5586 15.7385 18.5352 14.4762 18.5352H2.28571ZM13.7143 20.059C13.7143 20.9006 14.3965 21.5828 15.2381 21.5828V23.1067C13.5549 23.1067 12.1905 21.7422 12.1905 20.059H13.7143ZM12.1905 27.6781C12.1905 25.9949 13.5549 24.6305 15.2381 24.6305V26.1543C14.3965 26.1543 13.7143 26.8365 13.7143 27.6781H12.1905ZM1.52381 21.5828C2.36539 21.5828 3.04762 20.9006 3.04762 20.059H4.57143C4.57143 21.7422 3.20696 23.1067 1.52381 23.1067V21.5828ZM1.52381 24.6305C3.20696 24.6305 4.57143 25.9949 4.57143 27.6781H3.04762C3.04762 26.8365 2.36538 26.1543 1.52381 26.1543V24.6305ZM8.38095 21.2019C9.85371 21.2019 11.0476 22.3958 11.0476 23.8686C11.0476 25.3413 9.85371 26.5352 8.38095 26.5352C6.90819 26.5352 5.71429 25.3413 5.71429 23.8686C5.71429 22.3958 6.90819 21.2019 8.38095 21.2019Z" fill="#979797"/>
</svg>
