<svg width="50" height="50" viewBox="0 0 50 50" fill="none" xmlns="http://www.w3.org/2000/svg">
<g id="Group">
<path id="Vector" d="M25 50C38.8071 50 50 38.8071 50 25C50 11.1929 38.8071 0 25 0C11.1929 0 0 11.1929 0 25C0 38.8071 11.1929 50 25 50Z" fill="url(#paint0_linear_35_13246)"/>
<g id="WA Logo">
<path id="Vector_2" fill-rule="evenodd" clip-rule="evenodd" d="M37.0248 13.2814C34.0322 10.2852 30.047 8.6333 25.8063 8.6333C17.0655 8.6333 9.95073 15.7444 9.94703 24.4852C9.94703 27.2777 10.6766 30.0074 12.0655 32.4111L9.81738 40.6259L18.2248 38.4222C20.5396 39.6852 23.1507 40.3518 25.8026 40.3518H25.81C34.5507 40.3518 41.6655 33.2407 41.6692 24.4963C41.6692 20.2592 40.0211 16.2777 37.0285 13.2814H37.0248ZM25.8063 37.674H25.8026C23.4359 37.674 21.1174 37.037 19.0952 35.837L18.6137 35.5518L13.6248 36.8592L14.9581 31.9963L14.6433 31.4963C13.3248 29.4 12.6285 26.974 12.6285 24.4852C12.6285 17.2185 18.5433 11.3074 25.8174 11.3074C29.3396 11.3074 32.647 12.6815 35.1359 15.1703C37.6248 17.6629 38.9952 20.9703 38.9915 24.4926C38.9915 31.7592 33.0766 37.6703 25.81 37.6703L25.8063 37.674ZM33.0359 27.8037C32.6396 27.6037 30.6915 26.6481 30.3285 26.5148C29.9655 26.3815 29.7026 26.3148 29.4359 26.7148C29.173 27.1111 28.4137 28.0037 28.1804 28.2666C27.9507 28.5296 27.7174 28.5629 27.3211 28.3666C26.9248 28.1666 25.647 27.7518 24.1359 26.4C22.9581 25.3481 22.1618 24.0518 21.9322 23.6555C21.7026 23.2592 21.9063 23.0444 22.1063 22.8481C22.284 22.6703 22.5026 22.3851 22.6989 22.1555C22.8952 21.9259 22.9618 21.7592 23.0952 21.4963C23.2285 21.2333 23.1618 21 23.0618 20.8037C22.9618 20.6037 22.1692 18.6555 21.8396 17.8629C21.5174 17.0889 21.1915 17.1963 20.947 17.1814C20.7174 17.1703 20.4507 17.1666 20.1878 17.1666C19.9248 17.1666 19.4952 17.2666 19.1322 17.6629C18.7692 18.0592 17.747 19.0185 17.747 20.9666C17.747 22.9148 19.1655 24.8 19.3655 25.0629C19.5618 25.3259 22.1581 29.3296 26.1359 31.0444C27.0803 31.4518 27.8211 31.6963 28.3952 31.8777C29.3433 32.1777 30.21 32.137 30.8915 32.0333C31.6544 31.9185 33.2359 31.074 33.5655 30.1481C33.8952 29.2222 33.8952 28.4296 33.7952 28.2629C33.6952 28.0963 33.4322 28 33.0359 27.8V27.8037Z" fill="white"/>
</g>
</g>
<defs>
<linearGradient id="paint0_linear_35_13246" x1="25" y1="46.3667" x2="25" y2="-3.63333" gradientUnits="userSpaceOnUse">
<stop stop-color="#78CD51"/>
<stop offset="1" stop-color="#A0FC84"/>
</linearGradient>
</defs>
</svg>
