<svg width="32" height="36" viewBox="0 0 32 36" fill="none" xmlns="http://www.w3.org/2000/svg">
<path d="M2.33684 26.3926C7.14765 34.8149 17.8022 37.7005 26.1347 32.8379C28.4038 31.5137 30.3141 29.7223 31.769 27.5869C32.2554 26.8728 31.9408 25.8868 31.1333 25.5947C24.571 23.2206 21.0563 20.4696 19.0168 16.5345C16.8696 12.3917 16.3148 7.85385 17.8168 1.63362C18.0244 0.773498 17.3524 -0.045466 16.4777 0.00196471C13.7656 0.149028 11.1161 0.936442 8.71357 2.33859C0.381094 7.20112 -2.4738 17.9704 2.33684 26.3926ZM16.7024 17.7599C18.882 21.9652 22.4704 24.9768 28.5774 27.4413C27.5179 28.6665 26.2577 29.7167 24.8283 30.5508C17.7456 34.684 8.68884 32.2312 4.59968 25.0722C0.51034 17.9132 2.93708 8.75896 10.02 4.62569C11.5476 3.73417 13.1898 3.13553 14.8834 2.83772C13.7562 8.79559 14.4833 13.4783 16.7024 17.7599Z" fill="url(#paint0_linear_35_13768)"/>
<defs>
<linearGradient id="paint0_linear_35_13768" x1="32" y1="1.53742" x2="-4.36824" y2="25.7994" gradientUnits="userSpaceOnUse">
<stop stop-color="#DE87FF"/>
<stop offset="1" stop-color="#56BCFB"/>
</linearGradient>
</defs>
</svg>
